<?xml version="1.0" encoding="UTF-8"?>
<!DOCTYPE svg PUBLIC "-//W3C//DTD SVG 1.1//EN" "http://www.w3.org/Graphics/SVG/1.1/DTD/svg11.dtd">
<svg xmlns="http://www.w3.org/2000/svg" version="1.1" width="800px" height="800px" style="shape-rendering:geometricPrecision; text-rendering:geometricPrecision; image-rendering:optimizeQuality; fill-rule:evenodd; clip-rule:evenodd" xmlns:xlink="http://www.w3.org/1999/xlink">
<g><path style="opacity:0.931" fill="#62d2a1" d="M 364.5,60.5 C 492.814,51.9471 596.314,97.9471 675,198.5C 733.307,281.024 752.64,372.024 733,471.5C 720.677,526.064 696.844,574.731 661.5,617.5C 671.5,629.5 681.5,641.5 691.5,653.5C 691.291,654.086 690.957,654.586 690.5,655C 671.833,655.667 653.167,655.667 634.5,655C 568.667,576.5 502.833,498 437,419.5C 436.815,412.253 436.315,405.087 435.5,398C 435.833,397.667 436.167,397.333 436.5,397C 458.199,396.919 479.866,396.253 501.5,395C 526.361,388.136 539.361,371.803 540.5,346C 539.431,320.605 526.764,304.272 502.5,297C 476.204,295.555 449.871,295.055 423.5,295.5C 423.667,379.834 423.5,464.167 423,548.5C 407.911,549.491 392.745,549.824 377.5,549.5C 377.5,508.5 377.5,467.5 377.5,426.5C 336.165,426.333 294.832,426.5 253.5,427C 254.663,467.429 254.83,507.929 254,548.5C 238.911,549.491 223.745,549.824 208.5,549.5C 208.5,449.833 208.5,350.167 208.5,250.5C 223.833,250.5 239.167,250.5 254.5,250.5C 254.5,294.167 254.5,337.833 254.5,381.5C 295.5,381.5 336.5,381.5 377.5,381.5C 377.5,337.833 377.5,294.167 377.5,250.5C 379.792,250.756 381.959,250.423 384,249.5C 426.457,250.036 468.957,250.87 511.5,252C 553.796,262.628 578.296,289.461 585,332.5C 589.166,371.65 575.333,402.484 543.5,425C 532.806,431.014 521.472,435.347 509.5,438C 550.346,485.515 590.846,533.348 631,581.5C 687.08,507.127 705.413,424.127 686,332.5C 661.805,237.971 605.305,170.471 516.5,130C 456.26,104.948 394.26,99.6149 330.5,114C 214.293,146.87 141.46,221.704 112,338.5C 92.8213,446.372 121.988,538.539 199.5,615C 264.992,673.165 341.659,698.831 429.5,692C 480.423,686.44 526.923,669.273 569,640.5C 578.727,652.052 588.227,663.719 597.5,675.5C 552.747,708.72 502.413,729.22 446.5,737C 324.815,749.898 222.982,711.398 141,621.5C 68.9796,533.412 44.6462,433.412 68,321.5C 93.3448,222.571 150.511,148.404 239.5,99C 278.903,78.57 320.569,65.7366 364.5,60.5 Z"/></g>
</svg>
