<svg xmlns="http://www.w3.org/2000/svg" width="800" height="800" shape-rendering="geometricPrecision" text-rendering="geometricPrecision" image-rendering="optimizeQuality" fill-rule="evenodd" clip-rule="evenodd"><path fill="#62d2a1" d="M364.5 60.5c128.314-8.553 231.814 37.447 310.5 138 58.307 82.524 77.64 173.524 58 273-12.323 54.564-36.156 103.231-71.5 146l30 36a3.647 3.647 0 01-1 1.5 783.858 783.858 0 01-56 0L437 419.5a242.191 242.191 0 00-1.5-21.5l1-1c21.699-.081 43.366-.747 65-2 24.861-6.864 37.861-23.197 39-49-1.069-25.395-13.736-41.728-38-49a1100.826 1100.826 0 00-79-1.5c.167 84.334 0 168.667-.5 253a524.038 524.038 0 01-45.5 1v-123c-41.335-.167-82.668 0-124 .5 1.163 40.429 1.33 80.929.5 121.5a524.038 524.038 0 01-45.5 1v-299h46v131h123v-131c2.292.256 4.459-.077 6.5-1a9153.83 9153.83 0 01127.5 2.5c42.296 10.628 66.796 37.461 73.5 80.5 4.166 39.15-9.667 69.984-41.5 92.5a123.504 123.504 0 01-34 13A12540.691 12540.691 0 01631 581.5c56.08-74.373 74.413-157.373 55-249-24.195-94.529-80.695-162.029-169.5-202.5-60.24-25.052-122.24-30.385-186-16C214.293 146.87 141.46 221.704 112 338.5c-19.179 107.872 9.988 200.039 87.5 276.5 65.492 58.165 142.159 83.831 230 77 50.923-5.56 97.423-22.727 139.5-51.5a1367.431 1367.431 0 0128.5 35c-44.753 33.22-95.087 53.72-151 61.5-121.685 12.898-223.518-25.602-305.5-115.5-72.02-88.088-96.354-188.088-73-300C93.345 222.571 150.511 148.404 239.5 99c39.403-20.43 81.069-33.263 125-38.5z" opacity=".931"/></svg>